<svg xmlns="http://www.w3.org/2000/svg" version="1.1" xmlns:xlink="http://www.w3.org/1999/xlink" width="1500" height="1500" viewBox="0 0 1500 1500"><rect width="1500" height="1500" x="0" y="0" id="background" stroke="transparent" fill="#0c0202"></rect><svg xml:space="preserve" width="1000" height="1000" data-version="2" data-id="lg_pTjT41F8d7CYVvMsTt" viewBox="0 0 311 306" x="250" y="250"><rect width="100%" height="100%" fill="transparent"></rect><g transform="rotate(17 -432.16 595.26)"><linearGradient id="a" x1="0" x2=".43" y1="0" y2="0" gradientUnits="objectBoundingBox"><stop offset="0%" stop-color="#ffa62e"></stop><stop offset="100%" stop-color="#f71b3d"></stop></linearGradient><path fill="url(#a)" d="M444.53 686.98q-25.2 0-25.2-20.51 0-7.91 5.57-14.35 6.15-6.74 14.65-6.74 6.15 0 9.67 4.1 3.22 3.81 3.22 8.2 0 7.03-5.86 12.02-4.69 4.39-10.55 4.39-4.98 0-9.08-3.52 3.22 8.5 16.7 8.5 3.81 0 6.74-.88 24.32-6.74 42.19-29.59 6.45-8.2 17-25.64 10.54-17.43 24.02-44.68 6.15-12.6 11.28-24.17 5.13-11.58 9.82-21.54 23.14-48.34 35.74-62.11-11.42-3.81-24.9-3.81-40.44 0-78.82 31.64-20.22 16.7-31.94 35.45-10.54 16.7-10.54 29.3 0 14.65 13.77 14.65 12.6 0 33.11-14.06 20.8-14.36 28.71-34.57.88-2.35 2.34-2.35 1.47.59.88 2.35-8.49 25.78-30.47 41.02Q475 581.8 460.06 581.8q-12.31 0-19.93-7.62-7.91-7.62-7.91-20.22 0-28.71 36.92-58.89 41.61-33.99 95.81-33.99 8.21 0 16.12.88t15.23 2.93q18.17-15.82 37.8-15.82 7.62 0 15.53 3.22 2.05.88 1.46 2.34-.87 1.47-2.05 1.18-4.39-2.06-10.54-2.06-16.71 0-31.36 14.36 26.37 9.38 40.73 29.01 16.12 21.39 16.12 51.86v6.01q0 3.07-.59 6.3-4.69 47.17-38.09 82.33-33.4 35.74-81.75 40.14-2.05.29-4.1.44-2.05.15-4.1.15-29.59 0-29.59-19.05 0-4.69 2.05-9.08-31.94 30.76-63.29 30.76m91.42-8.2h3.07q1.61 0 3.37-.29 41.61-4.4 69.44-38.39 24.32-30.18 30.18-74.13.59-4.39.88-8.64.29-4.25.29-8.35 0-54.21-41.9-74.42-4.98 6.44-11.42 19.92-6.45 13.48-14.07 34.28-3.81 10.26-7.18 20.81-3.36 10.54-7.17 20.8-4.98 14.06-16.7 37.5-2.93 5.57-6.74 11.43-3.81 5.86-8.5 12.31l.59-.3q7.61-4.1 16.4-8.2t19.93-6.15q9.37-2.06 18.6-2.79 9.23-.73 18.32-.14 2.05 0 2.05 1.46 0 1.76-2.35 1.76-1.46 0-3.37-.15-1.9-.14-3.37-.14-12.01 0-27.54 4.39-19.92 5.86-31.35 15.82-19.34 17-19.34 28.72 0 12.89 17.88 12.89" transform="translate(-541.66 -568.02)"></path></g><rect width="244.66" height="237.91" x="-122.33" y="-118.95" fill="none" rx="0" ry="0" transform="rotate(17 -434.08 596.68)"></rect></svg></svg>